<?xml version="1.0" encoding="UTF-8" standalone="no"?>
<!-- Created with Inkscape (http://www.inkscape.org/) -->

<svg
   xmlns:dc="http://purl.org/dc/elements/1.1/"
   xmlns:cc="http://creativecommons.org/ns#"
   xmlns:rdf="http://www.w3.org/1999/02/22-rdf-syntax-ns#"
   xmlns:svg="http://www.w3.org/2000/svg"
   xmlns="http://www.w3.org/2000/svg"
   version="1.1"
   width="48"
   height="48"
   id="svg2">
  <defs
     id="defs4" />
  <metadata
     id="metadata7">
    <rdf:RDF>
      <cc:Work
         rdf:about="">
        <dc:format>image/svg+xml</dc:format>
        <dc:type
           rdf:resource="http://purl.org/dc/dcmitype/StillImage" />
        <dc:title></dc:title>
      </cc:Work>
    </rdf:RDF>
  </metadata>
  <g
     transform="translate(0,-1004.3622)"
     id="layer1">
    <rect
       width="48"
       height="48"
       x="0"
       y="0"
       transform="translate(0,1004.3622)"
       id="rect3898"
       style="fill:#decd87;fill-opacity:1;stroke:none" />
    <path
       d="M 30,3 28.71875,7.5 33,7.5 l 0.625,0 0.4375,0.4375 2.5625,2.5625 5.375,0 c 1.147171,0 2.201406,0.438164 3,1.15625 L 45,3 30,3 z M 6,9 6,12 c -1.6568542,0 -3,1.343146 -3,3 l 0,21 c 0,1.656854 1.3431458,3 3,3 l 36,0 c 1.656854,0 3,-1.343146 3,-3 l 0,-21 c 0,-1.656854 -1.343146,-3 -3,-3 l -6,0 -3,-3 -9,0 -3,3 -6,0 0,-3 -9,0 z m 22.5,6 C 34.29899,15 39,19.70101 39,25.5 39,31.29899 34.29899,36 28.5,36 22.70101,36 18,31.29899 18,25.5 18,19.70101 22.70101,15 28.5,15 z m 0,3 C 24.357864,18 21,21.357864 21,25.5 21,29.642136 24.357864,33 28.5,33 32.642136,33 36,29.642136 36,25.5 36,21.357864 32.642136,18 28.5,18 z m 0,3 c 2.485281,0 4.5,2.0147 4.5,4.5 0,2.4853 -3,2.7426 -3,-1.5 0,-3 -5.299798,-2.8467 -1.5,-3 z M 45,39.34375 C 44.201406,40.061836 43.147171,40.5 42,40.5 L 19.28125,40.5 18,45 l 27,0 0,-5.65625 z"
       transform="translate(0,1004.3622)"
       id="path3902"
       style="fill:#333333;fill-opacity:1;stroke:none" />
  </g>
</svg>
